<svg xmlns="http://www.w3.org/2000/svg" width="25" height="25" viewBox="0 0 25 25"><g transform="translate(0 -0.001)"><path d="M11.717,5.838a5.871,5.871,0,1,0,5.871,5.871,5.87,5.87,0,0,0-5.871-5.871Zm0,9.681a3.81,3.81,0,1,1,3.81-3.81A3.809,3.809,0,0,1,11.717,15.519Z" transform="translate(0.788 0.787)" fill="#e4e4e4"/><path d="M17.654.079c-2.3-.107-8-.1-10.3,0A7.47,7.47,0,0,0,2.109,2.1c-2.4,2.4-2.1,5.644-2.1,10.395,0,4.863-.271,8.027,2.1,10.395,2.414,2.412,5.7,2.1,10.395,2.1,4.817,0,6.479,0,8.182-.656,2.316-.9,4.064-2.969,4.234-6.686.108-2.3.1-8,0-10.3C24.715,2.957,22.359.3,17.654.079ZM21.295,21.3c-1.576,1.576-3.762,1.435-8.821,1.435-5.208,0-7.3.077-8.821-1.451C1.9,19.537,2.216,16.732,2.216,12.479c0-5.755-.591-9.9,5.185-10.2,1.327-.047,1.718-.062,5.058-.062l.047.031c5.551,0,9.906-.581,10.168,5.194.059,1.318.073,1.714.073,5.049,0,5.148.1,7.249-1.452,8.805Z" transform="translate(0 0)" fill="#e4e4e4"/><circle cx="1.633" cy="1.633" r="1.633" transform="translate(17.459 4.276)" fill="#e4e4e4"/></g></svg>