<svg xmlns="http://www.w3.org/2000/svg" width="30" height="17.501" viewBox="0 0 30 17.501"><path d="M24.895,15.035c-.485-.613-.346-.885,0-1.433.006-.006,4.01-5.539,4.423-7.415h0C29.525,5.5,29.32,5,28.328,5h-3.28a1.408,1.408,0,0,0-1.426.914A26.83,26.83,0,0,1,19.589,12.5c-.763.749-1.115.989-1.531.989-.205,0-.524-.24-.524-.924V6.186c0-.82-.234-1.186-.925-1.186H11.452a.785.785,0,0,0-.835.739c0,.778,1.181.956,1.3,3.144v4.746c0,1.04-.189,1.231-.608,1.231-1.115,0-3.821-4.014-5.425-8.608C5.564,5.361,5.248,5,4.406,5H1.125C.189,5,0,5.433,0,5.915c0,.853,1.115,5.091,5.185,10.692C7.9,20.429,11.718,22.5,15.193,22.5c2.089,0,2.344-.46,2.344-1.251,0-3.653-.189-4,.858-4,.485,0,1.32.24,3.27,2.084,2.229,2.186,2.6,3.165,3.843,3.165h3.28c.935,0,1.409-.46,1.136-1.368C29.3,19.224,25.085,15.3,24.895,15.035Z" transform="translate(0 -5)" fill="#e4e4e4"/></svg>